<svg xmlns="http://www.w3.org/2000/svg" version="1.1" xmlns:xlink="http://www.w3.org/1999/xlink" xmlns:svgjs="http://svgjs.dev/svgjs" width="1000" height="1000" viewBox="0 0 1000 1000"><rect width="1000" height="1000" fill="#ffffff"></rect><g transform="matrix(0.7,0,0,0.7,150.0000000000001,106.25)"><svg viewBox="0 0 320 360" data-background-color="#0a1627" preserveAspectRatio="xMidYMid meet" height="1125" width="1000" xmlns="http://www.w3.org/2000/svg" xmlns:xlink="http://www.w3.org/1999/xlink"><g id="tight-bounds" transform="matrix(1,0,0,1,0,0)"><svg viewBox="0 0 320 360" height="360" width="320"><g><svg></svg></g><g><svg viewBox="0 0 320 360" height="360" width="320"><g><path d="M20.961 227.22l3.726 4.658-1.863-6.056c-0.466-2.795-3.726 0.466-1.863 1.398M25.153 224.425c1.397 2.329 2.795 4.658 2.795 6.987 0 3.261 2.795 4.658 5.123 5.589-3.261-3.726-5.124-13.974-7.918-12.576M204.017 26.929c7.918 0 15.371-0.932 23.756 0.931 20.495 5.124 37.729 15.371 49.374 29.811l32.606 52.169c1.397 13.042 4.192 27.482 3.726 43.319 3.261 0 2.795-4.658 6.521-5.59-3.726 9.316-5.59 20.961-6.521 34.469-2.329-7.453 0-18.632 0.466-24.687-3.261 5.124-5.124 1.397-5.124-0.932 0.466-3.726-1.397-3.261-2.795-4.658-5.124-4.658-8.384-9.782-12.11-17.7 2.329-6.055 2.795-14.905-4.658-19.563-2.329-1.397-5.124-3.726-6.521-7.453-1.863-5.124-5.124-11.179-4.193-19.097 0.466-2.329-6.987 5.124-11.179 1.863-18.166-12.576-36.332-27.016-58.224-39.127-11.645 0-20.029-4.192-24.221-9.316-3.726-4.658-0.932-10.713 4.658-11.179 3.261 0 6.987-0.932 9.782 0.932 0.466-1.863 2.329-4.192 4.657-4.192M157.904 16.215l0.932 0.466c4.658 0.932 6.987 7.453 12.11 5.124 0 3.261 0.466 6.521-0.466 8.85-1.397 3.726-5.59 3.726-8.85 3.726-31.208-1.863-49.374 11.179-68.471 22.358-5.124 3.261-10.713 5.59-14.906 9.782-20.029 18.632-41.921 35.866-47.045 70.335l-4.192 38.195c-0.466 4.192-5.124 8.384-4.192 13.508l3.26 22.824c-3.261-3.261-5.124 0.932-4.192 2.795 0.466 1.397 2.329 6.055 5.124 1.863 3.726 6.987 7.453 20.495 12.576 26.55 15.837 18.632 36.332 35.4 53.101 52.169 4.192-0.932 7.453-0.932 8.384-3.727 1.397 2.795-1.397 5.59-3.726 6.056 7.453 4.658 15.837 8.85 27.016 9.781 14.44 0.932 27.948 3.261 40.524 6.522 6.521-1.863 13.042-2.795 20.029-3.261 2.329 0 3.726-3.726 6.521-4.658l0.466-4.658c2.795 4.192 2.329-1.397 0.466-4.192 3.261 2.795 4.192 5.124 5.589 6.987 0-1.397 3.726-6.521 3.727-0.466l0.931-6.055c1.397-0.932 1.863 5.124 3.261 0.931 1.397-4.192 4.192-0.932 6.987-2.329-0.932 1.863-0.466 5.59 2.794 3.261l3.727-3.261c2.329 5.59 6.055 3.261 7.918 2.329 20.495-13.042 40.99-28.413 60.553-43.784l-0.466 6.055 2.329-7.453c2.329 2.329 4.192 0.466 5.124-0.931 2.795-4.658 6.521-9.316 12.577-13.508-7.453 20.029-16.303 35.866-27.482 48.908l-4.658 5.59c0 3.261-0.932 7.453-4.658 7.918-1.863 0.466-5.59-0.932-8.384 1.863-1.397 1.863 3.261 5.59-0.466 2.795-3.261-2.329-6.521 0-10.248 0.932-2.795 0.932 1.863 3.726 2.795 5.589 0.932 1.863 1.863 3.726 1.398 6.056l-5.124-5.59c-6.055 3.261-9.782 9.316-14.906 13.974-2.329 1.863-1.397 5.124-1.397 7.918-3.261 0-6.987-0.932-8.85 0.932-1.397 1.863-0.932 4.658-0.932 7.453-4.658-0.466-5.124-7.453-9.315-6.056-4.192 0.932-8.85 1.397-12.577 3.727 2.795 5.59-4.658 2.329-3.726 3.26-6.987-4.192-13.042-7.453-20.495-4.658-15.837-5.124-35.4-2.795-49.84-0.931 0-2.329 0.466-4.658-0.466-5.124-0.932 2.329-3.726 1.397-3.26 1.397-8.85-6.055-17.7-9.782-27.016-14.905-8.384 0.932-16.303-3.261-18.632-5.59-6.521-6.055-13.974-2.795-20.029-4.192-13.042-3.261-17.7-16.769-19.098-26.084-0.932-4.658-4.658-6.521-6.055-6.056-6.055-19.563-15.371-37.263-22.824-55.429-1.863-4.658-1.397-9.316-1.397-14.44 2.329 0.932 4.658 0.466 4.192-2.794-2.329-15.371-7.918-27.016-13.974-38.195 3.261-15.837 3.726-34.469 11.179-48.443 6.521-12.576 18.632-19.098 27.016-29.811 2.795-3.726 2.795-8.85 5.59-12.11 9.316-9.316 18.632-19.098 28.879-27.482 4.658-3.726 10.247 0 17.234-1.397 2.329-8.384 11.645-15.837 20.495-13.508 3.726 0.932 11.179-8.85 13.508-9.782 3.726-1.397 1.863 3.726 1.863 6.987 8.85-6.987 20.961-10.713 32.14-14.906" fill="#fe0039" fill-rule="nonzero" stroke="none" stroke-width="1" stroke-linecap="butt" stroke-linejoin="miter" stroke-miterlimit="10" stroke-dasharray="" stroke-dashoffset="0" font-family="none" font-weight="none" font-size="none" text-anchor="none" style="mix-blend-mode: normal" data-fill-palette-color="tertiary"></path></g><g transform="matrix(1,0,0,1,64,164.65473145780052)"><svg viewBox="0 0 192 30.69053708439898" height="30.69053708439898" width="192"><g><svg viewBox="0 0 192 30.69053708439898" height="30.69053708439898" width="192"><g><svg viewBox="0 0 192 30.69053708439898" height="30.69053708439898" width="192"><g><svg viewBox="0 0 192 30.69053708439898" height="30.69053708439898" width="192"><g><svg viewBox="0 0 192 30.69053708439898" height="30.69053708439898" width="192"><g><svg viewBox="0 0 192 30.69053708439898" height="30.69053708439898" width="192"><g transform="matrix(1,0,0,1,0,0)"><svg width="192" viewBox="1.5 -36 312.76 50" height="30.69053708439898" data-palette-color="#f6edef"><path d="M24.75 4.35L24.75 4.35Q23.65 4.35 22.2 3.05 20.75 1.75 19.13-0.4 17.5-2.55 15.93-5.08 14.35-7.6 13.03-10.1 11.7-12.6 10.8-14.55L10.8-14.55 5.95 1.15Q5.6 2.3 4.85 2.78 4.1 3.25 3.23 3.35 2.35 3.45 1.5 3.45L1.5 3.45Q2.15 2.05 2.83 0.25 3.5-1.55 4.42-4.1 5.35-6.65 6.6-10.3 7.85-13.95 9.58-19.03 11.3-24.1 13.65-30.95L13.65-30.95Q13.8-31.35 14.05-32.08 14.3-32.8 14.3-33.4L14.3-33.4Q14.3-33.95 14.05-34.27 13.8-34.6 13.1-34.6L13.1-34.6Q11.9-34.6 10.78-33.63 9.65-32.65 8.78-31.15 7.9-29.65 7.4-28.05 6.9-26.45 6.9-25.2L6.9-25.2Q6.9-24.25 7.15-23.5L7.15-23.5Q5.5-23.5 4.83-24.33 4.15-25.15 4.15-26.35L4.15-26.35Q4.15-28.05 5.15-29.75 6.15-31.45 7.73-32.88 9.3-34.3 11.03-35.15 12.75-36 14.15-36L14.15-36Q15.5-36 15.98-35.25 16.45-34.5 16.45-33.6L16.45-33.6Q16.45-33.05 16.32-32.5 16.2-31.95 16.05-31.45L16.05-31.45 11.85-17.85Q12.55-18.85 13.68-19.7 14.8-20.55 16.15-21.65L16.15-21.65Q18.4-23.45 20.98-25.85 23.55-28.25 25.9-30.9 28.25-33.55 29.8-36L29.8-36Q30.05-35.7 30.15-34.95 30.25-34.2 30.25-33.8L30.25-33.8Q30.25-32.25 28.98-30.4 27.7-28.55 25.65-26.58 23.6-24.6 21.15-22.68 18.7-20.75 16.32-19.05 13.95-17.35 12.05-16.1L12.05-16.1Q13.55-13.55 14.98-11.25 16.4-8.95 18.07-6.75 19.75-4.55 22-2.25 24.25 0.05 27.45 2.7L27.45 2.7Q27.1 3.35 26.35 3.85 25.6 4.35 24.75 4.35ZM34.2 2.2L34.2 2.2Q31.15 2.2 29.62 0.53 28.1-1.15 28.1-3.6L28.1-3.6Q28.1-5.85 29.22-8.35 30.35-10.85 32.22-13.05 34.1-15.25 36.35-16.63 38.6-18 40.8-18L40.8-18Q41.95-18 42.92-17.4 43.9-16.8 43.9-14.95L43.9-14.95Q43.9-13.05 42.77-11.38 41.65-9.7 39.82-8.4 38-7.1 35.82-6.28 33.65-5.45 31.5-5.25L31.5-5.25Q31.4-4.75 31.35-4.3 31.3-3.85 31.3-3.45L31.3-3.45Q31.3-2.7 31.47-1.95 31.65-1.2 32.1-0.58 32.55 0.05 33.32 0.4 34.1 0.75 35.25 0.75L35.25 0.75Q37.4 0.75 39.5-0.48 41.6-1.7 43.4-3.7 45.2-5.7 46.45-8.1L46.45-8.1 47.05-7.65Q45.7-4.65 43.62-2.45 41.55-0.25 39.12 0.98 36.7 2.2 34.2 2.2ZM31.75-6.2L31.75-6.2Q33.1-6.65 34.8-7.53 36.5-8.4 38.07-9.6 39.65-10.8 40.67-12.25 41.7-13.7 41.7-15.3L41.7-15.3Q41.7-15.85 41.5-16.15 41.3-16.45 40.65-16.45L40.65-16.45Q39.45-16.45 38.1-15.53 36.75-14.6 35.5-13.1 34.25-11.6 33.25-9.8 32.25-8 31.75-6.2ZM49.6 1.5L49.6 1.5Q47.45 1.5 46.52 0.03 45.6-1.45 45.6-3.65L45.6-3.65Q45.6-6.05 46.5-9.35 47.4-12.65 48.87-16.3 50.35-19.95 52.1-23.43 53.85-26.9 55.6-29.75 57.35-32.6 58.82-34.3 60.3-36 61.15-36L61.15-36Q61.7-36 62.05-35.38 62.4-34.75 62.6-33.88 62.8-33 62.8-32.3L62.8-32.3Q62.8-30.95 62.12-28.78 61.45-26.6 60.22-23.93 59-21.25 57.32-18.53 55.65-15.8 53.67-13.3 51.7-10.8 49.5-9L49.5-9Q49.2-7.65 49.02-6.38 48.85-5.1 48.85-3.95L48.85-3.95Q48.85-2 49.4-1.05 49.95-0.1 51.05-0.1L51.05-0.1Q52.4-0.1 53.72-1.3 55.05-2.5 56.22-4.33 57.4-6.15 58.25-8.1L58.25-8.1 59-7.7Q57-3.45 54.65-0.98 52.3 1.5 49.6 1.5ZM49.95-10.7L49.95-10.7Q51.7-12.45 53.35-14.73 55-17 56.42-19.45 57.85-21.9 58.95-24.2 60.05-26.5 60.65-28.33 61.25-30.15 61.25-31.15L61.25-31.15Q61.25-31.65 61.12-31.8 61-31.95 60.9-31.95L60.9-31.95Q60.5-31.95 59.52-30.68 58.55-29.4 57.25-27.25 55.95-25.1 54.6-22.35 53.25-19.6 52.02-16.6 50.8-13.6 49.95-10.7ZM62.64 2.2L62.64 2.2Q59.59 2.2 58.07 0.53 56.54-1.15 56.54-3.6L56.54-3.6Q56.54-5.85 57.67-8.35 58.79-10.85 60.67-13.05 62.54-15.25 64.79-16.63 67.04-18 69.24-18L69.24-18Q70.39-18 71.37-17.4 72.34-16.8 72.34-14.95L72.34-14.95Q72.34-13.05 71.22-11.38 70.09-9.7 68.27-8.4 66.44-7.1 64.27-6.28 62.09-5.45 59.94-5.25L59.94-5.25Q59.84-4.75 59.79-4.3 59.74-3.85 59.74-3.45L59.74-3.45Q59.74-2.7 59.92-1.95 60.09-1.2 60.54-0.58 60.99 0.05 61.77 0.4 62.54 0.75 63.69 0.75L63.69 0.75Q65.84 0.75 67.94-0.48 70.04-1.7 71.84-3.7 73.64-5.7 74.89-8.1L74.89-8.1 75.49-7.65Q74.14-4.65 72.07-2.45 69.99-0.25 67.57 0.98 65.14 2.2 62.64 2.2ZM60.19-6.2L60.19-6.2Q61.54-6.65 63.24-7.53 64.94-8.4 66.52-9.6 68.09-10.8 69.12-12.25 70.14-13.7 70.14-15.3L70.14-15.3Q70.14-15.85 69.94-16.15 69.74-16.45 69.09-16.45L69.09-16.45Q67.89-16.45 66.54-15.53 65.19-14.6 63.94-13.1 62.69-11.6 61.69-9.8 60.69-8 60.19-6.2ZM79.24 2.8L79.24 2.8Q76.84 2.8 75.24 1.2 73.64-0.4 73.64-3.6L73.64-3.6Q73.64-6.1 74.62-8.47 75.59-10.85 77.19-12.75 78.79-14.65 80.74-15.78 82.69-16.9 84.59-16.9L84.59-16.9Q86.64-16.9 87.39-15.7 88.14-14.5 88.14-13.2L88.14-13.2Q88.14-11.75 87.47-10.65 86.79-9.55 85.64-9.55L85.64-9.55Q84.79-9.55 84.19-10.3L84.19-10.3Q84.94-10.7 85.49-11.93 86.04-13.15 86.04-14.25L86.04-14.25Q86.04-14.85 85.82-15.18 85.59-15.5 84.94-15.5L84.94-15.5Q83.59-15.5 82.17-14.3 80.74-13.1 79.52-11.2 78.29-9.3 77.52-7.2 76.74-5.1 76.74-3.25L76.74-3.25Q76.74-1.7 77.49-0.4 78.24 0.9 80.39 0.9L80.39 0.9Q82.39 0.9 84.42-0.2 86.44-1.3 88.19-3.35 89.94-5.4 90.99-8.15L90.99-8.15 91.64-7.65Q90.49-4.65 88.49-2.27 86.49 0.1 84.09 1.45 81.69 2.8 79.24 2.8ZM92.39 1.9L92.39 1.9Q91.44 1.9 90.89 0.3 90.34-1.3 90.34-3.3L90.34-3.3Q90.34-5.7 91.14-9 91.94-12.3 93.24-15.95 94.54-19.6 96.16-23.1 97.79-26.6 99.49-29.45 101.19-32.3 102.69-34 104.19-35.7 105.29-35.7L105.29-35.7Q106.19-35.7 106.56-34.63 106.94-33.55 106.94-32.55L106.94-32.55Q106.94-31.15 106.31-29.15 105.69-27.15 104.59-24.88 103.49-22.6 102.04-20.4 100.59-18.2 98.89-16.38 97.19-14.55 95.44-13.5L95.44-13.5Q94.84-12.05 94.41-10.25 93.99-8.45 93.79-6.73 93.59-5 93.59-3.65L93.59-3.65Q93.59-3.1 93.61-2.7 93.64-2.3 93.69-1.95L93.69-1.95Q94.39-4 95.21-5.93 96.04-7.85 96.99-9.47 97.94-11.1 99.01-12.33 100.09-13.55 101.29-14.23 102.49-14.9 103.84-14.9L103.84-14.9Q105.24-14.9 106.06-14.23 106.89-13.55 107.26-12.53 107.64-11.5 107.64-10.4L107.64-10.4Q107.64-8.85 107.11-7.4 106.59-5.95 106.04-4.6 105.49-3.25 105.49-2L105.49-2Q105.49-1 105.91-0.55 106.34-0.1 106.99-0.1L106.99-0.1Q108.14-0.1 109.56-1.2 110.99-2.3 112.39-4.13 113.79-5.95 114.79-8.1L114.79-8.1 115.44-7.5Q114.39-5.05 112.89-3.08 111.39-1.1 109.59 0.05 107.79 1.2 105.84 1.2L105.84 1.2Q104.14 1.2 103.26 0.3 102.39-0.6 102.39-1.95L102.39-1.95Q102.39-3 102.79-4.3 103.19-5.6 103.56-6.95 103.94-8.3 103.94-9.5L103.94-9.5Q103.94-10.8 103.39-11.35 102.84-11.9 102.04-11.9L102.04-11.9Q100.79-11.9 99.79-10.9 98.79-9.9 97.96-8.33 97.14-6.75 96.41-5 95.69-3.25 95.04-1.68 94.39-0.1 93.74 0.9 93.09 1.9 92.39 1.9ZM96.09-15.45L96.09-15.45Q97.49-16.55 98.81-18.25 100.14-19.95 101.29-21.88 102.44-23.8 103.34-25.65 104.24-27.5 104.74-29 105.24-30.5 105.24-31.25L105.24-31.25Q105.24-31.5 105.19-31.58 105.14-31.65 105.04-31.65L105.04-31.65Q104.69-31.65 103.61-30.28 102.54-28.9 101.14-26.6 99.74-24.3 98.39-21.4 97.04-18.5 96.09-15.45ZM117.44 1.3L117.44 1.3Q115.49 1.3 114.54 0.08 113.59-1.15 113.59-2.9L113.59-2.9Q113.59-4.05 114.01-5.8 114.44-7.55 115.14-9.47 115.84-11.4 116.76-13.1 117.69-14.8 118.74-15.88 119.79-16.95 120.79-16.95L120.79-16.95Q121.24-16.95 121.56-16.68 121.89-16.4 121.89-15.85L121.89-15.85Q121.89-15.25 121.11-13.9 120.34-12.55 119.29-10.8 118.24-9.05 117.46-7.13 116.69-5.2 116.69-3.45L116.69-3.45Q116.69-1.65 117.29-1.05 117.89-0.45 119.14-0.45L119.14-0.45Q120.84-0.45 122.76-2.15 124.69-3.85 126.84-8.1L126.84-8.1 127.29-7.6Q125.84-3.3 123.11-1 120.39 1.3 117.44 1.3ZM123.44-21.6L123.44-21.6Q122.64-21.6 122.01-22 121.39-22.4 121.39-23.25L121.39-23.25Q121.39-24.3 122.61-25.08 123.84-25.85 125.04-25.85L125.04-25.85Q125.79-25.85 126.24-25.5 126.69-25.15 126.69-24.3L126.69-24.3Q126.69-23.35 125.66-22.48 124.64-21.6 123.44-21.6ZM149.53 4.35L149.53 4.35Q146.68 4.35 144.53 2.83 142.38 1.3 141.16-1.5 139.93-4.3 139.93-8.05L139.93-8.05Q139.93-11.9 141.16-15.85 142.38-19.8 144.48-23.4 146.58-27 149.23-29.83 151.88-32.65 154.83-34.3 157.78-35.95 160.63-35.95L160.63-35.95Q161.58-35.95 162.33-35.8 163.08-35.65 163.63-35.35L163.63-35.35Q163.23-35.35 163.16-35.35 163.08-35.35 163.03-35.35L163.03-35.35Q160.43-35.35 157.78-33.63 155.13-31.9 152.73-28.98 150.33-26.05 148.43-22.43 146.53-18.8 145.43-14.9 144.33-11 144.33-7.35L144.33-7.35Q144.33-4.7 145.01-2.4 145.68-0.1 147.18 1.28 148.68 2.65 151.03 2.65L151.03 2.65Q153.83 2.65 156.28 0.93 158.73-0.8 160.71-3.75 162.68-6.7 164.11-10.33 165.53-13.95 166.31-17.82 167.08-21.7 167.08-25.25L167.08-25.25Q167.08-26.65 166.88-28.25 166.68-29.85 166.18-31 165.68-32.15 164.83-32.15L164.83-32.15Q163.93-32.15 162.88-31.03 161.83-29.9 160.86-28.2 159.88-26.5 159.13-24.68 158.38-22.85 158.08-21.45L158.08-21.45Q156.83-21.75 156.26-22.43 155.68-23.1 155.68-23.9L155.68-23.9Q155.68-25.25 156.61-26.88 157.53-28.5 158.96-30.03 160.38-31.55 161.93-32.52 163.48-33.5 164.73-33.5L164.73-33.5Q166.03-33.5 166.86-32.55 167.68-31.6 168.16-30.13 168.63-28.65 168.81-26.98 168.98-25.3 168.98-23.85L168.98-23.85Q168.98-18.4 167.76-13.93 166.53-9.45 164.46-6.05 162.38-2.65 159.83-0.33 157.28 2 154.61 3.18 151.93 4.35 149.53 4.35ZM174.28 2.3L174.28 2.3Q172.13 2.3 170.98 1.05 169.83-0.2 169.83-2.65L169.83-2.65Q169.83-4.85 170.65-8.08 171.48-11.3 172.73-14.7L172.73-14.7Q172.23-14.8 171.78-14.88 171.33-14.95 170.93-15.1L170.93-15.1 170.93-16Q171.33-15.95 171.88-15.9 172.43-15.85 173.13-15.8L173.13-15.8Q174.18-18.5 175.38-21.03 176.58-23.55 177.75-25.53 178.93-27.5 180-28.68 181.08-29.85 181.83-29.85L181.83-29.85Q182.23-29.85 182.55-29.58 182.88-29.3 182.88-28.75L182.88-28.75Q182.88-27.9 181.83-25.98 180.78-24.05 179.23-21.4 177.68-18.75 176.23-15.65L176.23-15.65Q176.68-15.65 177.15-15.65 177.63-15.65 178.08-15.65L178.08-15.65Q179.73-15.65 181.55-15.7 183.38-15.75 185.23-15.95L185.23-15.95 185.23-15.05Q182.48-14.75 180.3-14.6 178.13-14.45 176.43-14.45L176.43-14.45Q176.23-14.45 176.05-14.45 175.88-14.45 175.68-14.45L175.68-14.45Q174.53-11.8 173.73-9 172.93-6.2 172.93-3.55L172.93-3.55Q172.93-1.4 173.58-0.48 174.23 0.45 175.73 0.45L175.73 0.45Q178.33 0.45 180.83-1.85 183.33-4.15 185.23-8.1L185.23-8.1 185.88-7.6Q184.68-4.8 182.85-2.55 181.03-0.3 178.83 1 176.63 2.3 174.28 2.3ZM188.03 1.5L188.03 1.5Q186.33 1.5 185.3-0.03 184.28-1.55 184.28-3.55L184.28-3.55Q184.28-5 184.75-6.9 185.23-8.8 185.93-10.65 186.63-12.5 187.38-13.7 188.13-14.9 188.68-14.9L188.68-14.9Q188.93-14.9 189.53-14.63 190.13-14.35 190.53-13.9L190.53-13.9Q189.98-13.05 189.18-11.3 188.38-9.55 187.78-7.55 187.18-5.55 187.18-3.85L187.18-3.85Q187.18-3.45 187.28-2.63 187.38-1.8 187.78-1.15 188.18-0.5 188.98-0.5L188.98-0.5Q189.93-0.5 190.93-1.48 191.93-2.45 192.95-4 193.98-5.55 194.93-7.35 195.88-9.15 196.7-10.8 197.53-12.45 198.08-13.55L198.08-13.55Q198.38-13.5 198.95-13.35 199.53-13.2 200-12.95 200.48-12.7 200.48-12.25L200.48-12.25Q200.48-12.05 199.98-10.93 199.48-9.8 198.8-8.18 198.13-6.55 197.63-4.9 197.13-3.25 197.13-2L197.13-2Q197.13-1.1 197.5-0.55 197.88 0 198.78 0L198.78 0Q199.83 0 201.33-0.95 202.83-1.9 204.38-3.73 205.93-5.55 207.13-8.1L207.13-8.1 207.78-7.65Q206.73-4.95 205.03-2.88 203.33-0.8 201.43 0.35 199.53 1.5 197.73 1.5L197.73 1.5Q196.43 1.5 195.65 1 194.88 0.5 194.55-0.35 194.23-1.2 194.23-2.2L194.23-2.2Q194.23-2.8 194.33-3.43 194.43-4.05 194.58-4.7L194.58-4.7Q193.68-3.05 192.63-1.63 191.58-0.2 190.43 0.65 189.28 1.5 188.03 1.5ZM208.07 14L208.07 14Q206.97 14 206.07 13.33 205.17 12.65 205.17 11.1L205.17 11.1Q205.17 9.6 206.1 8.33 207.02 7.05 208.47 5.98 209.92 4.9 211.65 4 213.37 3.1 214.92 2.3L214.92 2.3Q215.62 0.55 216.25-1.48 216.87-3.5 217.47-5.95L217.47-5.95Q215.57-3.2 213.5-1.38 211.42 0.45 209.32 0.45L209.32 0.45Q207.52 0.45 206.55-0.9 205.57-2.25 205.57-4.4L205.57-4.4Q205.57-7 206.85-9.35 208.12-11.7 210.17-13.5 212.22-15.3 214.52-16.32 216.82-17.35 218.82-17.35L218.82-17.35Q220.27-17.35 220.9-16.88 221.52-16.4 221.52-15.75L221.52-15.75Q221.52-15.3 221.27-15.05 221.02-14.8 220.92-14.75L220.92-14.75Q220.67-15.15 220.17-15.33 219.67-15.5 218.92-15.5L218.92-15.5Q216.97-15.5 215.15-14.35 213.32-13.2 211.92-11.4 210.52-9.6 209.7-7.68 208.87-5.75 208.87-4.15L208.87-4.15Q208.87-2.95 209.35-2.33 209.82-1.7 210.62-1.7L210.62-1.7Q212.07-1.7 214.1-3.63 216.12-5.55 218.02-8.3L218.02-8.3Q218.17-9 218.3-9.55 218.42-10.1 218.62-10.95L218.62-10.95Q218.77-11.65 219.35-12.58 219.92-13.5 221.17-13.5L221.17-13.5Q221.42-13.5 221.67-13.48 221.92-13.45 222.22-13.35L222.22-13.35Q222.22-12.55 221.75-10.43 221.27-8.3 220.4-5.48 219.52-2.65 218.37 0.35L218.37 0.35Q220.02-0.45 221.6-1.7 223.17-2.95 224.47-4.58 225.77-6.2 226.52-8.1L226.52-8.1 227.17-7.6Q226.42-5.35 224.77-3.5 223.12-1.65 221.25-0.3 219.37 1.05 217.82 1.8L217.82 1.8Q216.42 5.15 214.87 7.93 213.32 10.7 211.65 12.35 209.97 14 208.07 14ZM207.92 12.4L207.92 12.4Q208.92 12.4 210.65 10.43 212.37 8.45 214.37 3.65L214.37 3.65Q212.37 4.65 210.65 5.73 208.92 6.8 207.82 8 206.72 9.2 206.72 10.65L206.72 10.65Q206.72 11.45 207.07 11.93 207.42 12.4 207.92 12.4ZM230.27 3.65L230.27 3.65Q227.67 3.65 226.4 1.95 225.12 0.25 225.12-2.65L225.12-2.65Q225.12-5.15 225.97-8.55 226.82-11.95 228.22-15.68 229.62-19.4 231.35-22.95 233.07-26.5 234.82-29.38 236.57-32.25 238.12-33.98 239.67-35.7 240.67-35.7L240.67-35.7Q241.52-35.7 241.9-34.65 242.27-33.6 242.27-32.55L242.27-32.55Q242.27-31.15 241.67-29.15 241.07-27.15 239.97-24.88 238.87-22.6 237.42-20.4 235.97-18.2 234.3-16.38 232.62-14.55 230.87-13.5L230.87-13.5Q230.57-12.95 230-11.23 229.42-9.5 228.95-7.28 228.47-5.05 228.47-2.95L228.47-2.95Q228.47-0.9 229.1 0.43 229.72 1.75 231.22 1.75L231.22 1.75Q232.67 1.75 234.22 0.58 235.77-0.6 236.72-2.45L236.72-2.45Q234.87-3.4 233.97-5.23 233.07-7.05 233.07-8.9L233.07-8.9Q233.07-11.3 234.32-12.75 235.57-14.2 237.27-14.2L237.27-14.2Q238.72-14.2 239.57-13.03 240.42-11.85 240.42-9.6L240.42-9.6Q240.42-7.95 239.97-6.2 239.52-4.45 238.67-2.8L238.67-2.8Q238.97-2.75 239.3-2.7 239.62-2.65 239.97-2.65L239.97-2.65Q241.77-2.65 242.97-3.53 244.17-4.4 245-5.68 245.82-6.95 246.37-8.1L246.37-8.1 246.97-7.45Q245.57-4 243.65-2.88 241.72-1.75 239.82-1.75L239.82-1.75Q239.42-1.75 239.02-1.8 238.62-1.85 238.22-1.9L238.22-1.9Q236.87 0.4 234.9 2.02 232.92 3.65 230.27 3.65ZM237.22-3.45L237.22-3.45Q237.77-4.6 238.07-5.88 238.37-7.15 238.37-8.5L238.37-8.5Q238.37-10.25 237.9-11.25 237.42-12.25 236.72-12.25L236.72-12.25Q235.97-12.25 235.4-11.23 234.82-10.2 234.82-8.65L234.82-8.65Q234.82-7.3 235.37-5.8 235.92-4.3 237.22-3.45ZM231.42-15.45L231.42-15.45Q232.82-16.55 234.15-18.25 235.47-19.95 236.62-21.88 237.77-23.8 238.67-25.65 239.57-27.5 240.07-29 240.57-30.5 240.57-31.25L240.57-31.25Q240.57-31.5 240.52-31.58 240.47-31.65 240.37-31.65L240.37-31.65Q239.97-31.65 238.85-30.23 237.72-28.8 236.35-26.43 234.97-24.05 233.62-21.18 232.27-18.3 231.42-15.45ZM249.07 1.5L249.07 1.5Q247.37 1.5 246.34-0.03 245.32-1.55 245.32-3.55L245.32-3.55Q245.32-5 245.79-6.9 246.27-8.8 246.97-10.65 247.67-12.5 248.42-13.7 249.17-14.9 249.72-14.9L249.72-14.9Q249.97-14.9 250.57-14.63 251.17-14.35 251.57-13.9L251.57-13.9Q251.02-13.05 250.22-11.3 249.42-9.55 248.82-7.55 248.22-5.55 248.22-3.85L248.22-3.85Q248.22-3.45 248.32-2.63 248.42-1.8 248.82-1.15 249.22-0.5 250.02-0.5L250.02-0.5Q250.97-0.5 251.97-1.48 252.97-2.45 253.99-4 255.02-5.55 255.97-7.35 256.92-9.15 257.74-10.8 258.57-12.45 259.12-13.55L259.12-13.55Q259.42-13.5 259.99-13.35 260.57-13.2 261.04-12.95 261.52-12.7 261.52-12.25L261.52-12.25Q261.52-12.05 261.02-10.93 260.52-9.8 259.84-8.18 259.17-6.55 258.67-4.9 258.17-3.25 258.17-2L258.17-2Q258.17-1.1 258.54-0.55 258.92 0 259.82 0L259.82 0Q260.87 0 262.37-0.95 263.87-1.9 265.42-3.73 266.97-5.55 268.17-8.1L268.17-8.1 268.82-7.65Q267.77-4.95 266.07-2.88 264.37-0.8 262.47 0.35 260.57 1.5 258.77 1.5L258.77 1.5Q257.47 1.5 256.69 1 255.92 0.5 255.59-0.35 255.27-1.2 255.27-2.2L255.27-2.2Q255.27-2.8 255.37-3.43 255.47-4.05 255.62-4.7L255.62-4.7Q254.72-3.05 253.67-1.63 252.62-0.2 251.47 0.65 250.32 1.5 249.07 1.5ZM269.62 2.35L269.62 2.35Q268.07 2.35 266.99 1.33 265.92 0.3 265.92-1.8L265.92-1.8Q265.92-3.6 266.72-5.68 267.52-7.75 268.92-9.78 270.32-11.8 272.09-13.48 273.87-15.15 275.84-16.15 277.82-17.15 279.77-17.15L279.77-17.15Q281.72-17.15 283.02-16.13 284.32-15.1 284.32-13.4L284.32-13.4Q284.32-12.15 283.64-11.7 282.97-11.25 281.87-11.25L281.87-11.25Q281.97-11.65 282.04-12.13 282.12-12.6 282.12-13L282.12-13Q282.12-14.15 281.57-14.98 281.02-15.8 279.67-15.8L279.67-15.8Q278.27-15.8 276.82-14.83 275.37-13.85 274.02-12.23 272.67-10.6 271.62-8.7 270.57-6.8 269.97-4.95 269.37-3.1 269.37-1.65L269.37-1.65Q269.37 0.3 270.72 0.3L270.72 0.3Q271.87 0.3 273.22-0.78 274.57-1.85 275.99-3.53 277.42-5.2 278.72-7 280.02-8.8 281.02-10.3L281.02-10.3Q281.22-10.6 281.27-10.6L281.27-10.6Q281.57-10.55 282.04-10.4 282.52-10.25 282.87-10 283.22-9.75 283.22-9.35L283.22-9.35Q283.22-8.9 282.77-8.13 282.32-7.35 281.77-6.35 281.22-5.35 280.77-4.33 280.32-3.3 280.32-2.4L280.32-2.4Q280.32-1.65 280.72-0.93 281.12-0.2 282.02-0.2L282.02-0.2Q283.37-0.2 285.57-2.18 287.77-4.15 290.02-8.1L290.02-8.1 290.52-7.6Q289.47-4.9 287.82-2.85 286.17-0.8 284.29 0.35 282.42 1.5 280.62 1.5L280.62 1.5Q278.77 1.5 277.89 0.4 277.02-0.7 277.02-2L277.02-2Q277.02-2.3 277.07-2.68 277.12-3.05 277.17-3.45L277.17-3.45Q275.02-0.55 273.24 0.9 271.47 2.35 269.62 2.35ZM293.16 1.5L293.16 1.5Q291.01 1.5 290.09 0.03 289.16-1.45 289.16-3.65L289.16-3.65Q289.16-6.05 290.06-9.35 290.96-12.65 292.44-16.3 293.91-19.95 295.66-23.43 297.41-26.9 299.16-29.75 300.91-32.6 302.39-34.3 303.86-36 304.71-36L304.71-36Q305.26-36 305.61-35.38 305.96-34.75 306.16-33.88 306.36-33 306.36-32.3L306.36-32.3Q306.36-30.95 305.69-28.78 305.01-26.6 303.79-23.93 302.56-21.25 300.89-18.53 299.21-15.8 297.24-13.3 295.26-10.8 293.06-9L293.06-9Q292.76-7.65 292.59-6.38 292.41-5.1 292.41-3.95L292.41-3.95Q292.41-2 292.96-1.05 293.51-0.1 294.61-0.1L294.61-0.1Q295.96-0.1 297.29-1.3 298.61-2.5 299.79-4.33 300.96-6.15 301.81-8.1L301.81-8.1 302.56-7.7Q300.56-3.45 298.21-0.98 295.86 1.5 293.16 1.5ZM293.51-10.7L293.51-10.7Q295.26-12.45 296.91-14.73 298.56-17 299.99-19.45 301.41-21.9 302.51-24.2 303.61-26.5 304.21-28.33 304.81-30.15 304.81-31.15L304.81-31.15Q304.81-31.65 304.69-31.8 304.56-31.95 304.46-31.95L304.46-31.95Q304.06-31.95 303.09-30.68 302.11-29.4 300.81-27.25 299.51-25.1 298.16-22.35 296.81-19.6 295.59-16.6 294.36-13.6 293.51-10.7ZM304.41 1.3L304.41 1.3Q302.46 1.3 301.51 0.08 300.56-1.15 300.56-2.9L300.56-2.9Q300.56-4.05 300.99-5.8 301.41-7.55 302.11-9.47 302.81-11.4 303.74-13.1 304.66-14.8 305.71-15.88 306.76-16.95 307.76-16.95L307.76-16.95Q308.21-16.95 308.54-16.68 308.86-16.4 308.86-15.85L308.86-15.85Q308.86-15.25 308.09-13.9 307.31-12.55 306.26-10.8 305.21-9.05 304.44-7.13 303.66-5.2 303.66-3.45L303.66-3.45Q303.66-1.65 304.26-1.05 304.86-0.45 306.11-0.45L306.11-0.45Q307.81-0.45 309.74-2.15 311.66-3.85 313.81-8.1L313.81-8.1 314.26-7.6Q312.81-3.3 310.09-1 307.36 1.3 304.41 1.3ZM310.41-21.6L310.41-21.6Q309.61-21.6 308.99-22 308.36-22.4 308.36-23.25L308.36-23.25Q308.36-24.3 309.59-25.08 310.81-25.85 312.01-25.85L312.01-25.85Q312.76-25.85 313.21-25.5 313.66-25.15 313.66-24.3L313.66-24.3Q313.66-23.35 312.64-22.48 311.61-21.6 310.41-21.6Z" opacity="1" transform="matrix(1,0,0,1,0,0)" fill="#000000" class="undefined-text-0" data-fill-palette-color="primary" id="text-0"></path></svg></g></svg></g></svg></g></svg></g><g></g></svg></g></svg></g></svg></g></svg></g><defs></defs></svg><rect width="320" height="360" fill="none" stroke="none" visibility="hidden"></rect></g></svg></g></svg>